<?xml version="1.0" encoding="utf-8"?>
<!-- Generator: Adobe Illustrator 22.1.0, SVG Export Plug-In . SVG Version: 6.00 Build 0)  -->
<svg version="1.1" id="Layer_1" xmlns="http://www.w3.org/2000/svg" xmlns:xlink="http://www.w3.org/1999/xlink" x="0px" y="0px"
	 viewBox="0 0 100 100" style="enable-background:new 0 0 100 100;" xml:space="preserve">
<title>icon-mask</title>
<path id="Fill-13_1_" d="M66,16.2c-3.5,0-6.3-2.8-6.3-6.3s2.8-6.3,6.3-6.3s6.3,2.8,6.3,6.3S69.4,16.2,66,16.2"/>
<path id="Fill-17_2_" d="M93.7,12.6c-3.5,0-6.3-2.8-6.3-6.3c0-3.5,2.8-6.3,6.3-6.3c3.5,0,6.3,2.8,6.3,6.3
	C100,9.8,97.2,12.6,93.7,12.6"/>
<path d="M91,18.1c-3.9,0-7,3.2-7,7.1c0,3.9,3.1,7.1,7,7.1s7-3.2,7-7.1C98,21.2,94.9,18.1,91,18.1z"/>
<path d="M99.2,51.3c-0.6-0.5-1.4-0.7-2.1-0.5c-0.6,0.2-1.3,0.2-1.9,0.2c-4.4,0-8-3.6-8-8.1c0-1.4,0.3-2.7,1-3.9
	c0.5-0.9,0.4-1.9-0.2-2.7c-0.6-0.8-1.6-1.1-2.6-0.8c-1,0.3-2.1,0.5-3.2,0.5c-5.9,0-10.6-4.8-10.6-10.7c0-0.1,0-0.3,0-0.4l0-0.2
	c0-0.8-0.3-1.6-1-2.1c-0.6-0.5-1.5-0.6-2.3-0.3c-1.2,0.4-2.4,0.6-3.6,0.6c-5.9,0-10.6-4.8-10.6-10.7c0-1.2,0.2-2.3,0.6-3.5
	C55,8,54.8,7.1,54.2,6.5c-0.6-0.7-1.5-0.9-2.3-0.8c-3.9,0.9-7.8-1-9.6-4.4c-0.5-0.9-1.6-1.4-2.6-1.2C21.4,4,7.2,17.8,2.1,35.2
	C2,35.3,2,35.4,2,35.4c-0.1,0.2-0.1,0.5-0.2,0.7c-0.2,0.8-0.4,1.6-0.6,2.4c-0.1,0.3-0.1,0.6-0.2,1c-0.2,0.8-0.3,1.5-0.4,2.3
	c0,0.2-0.1,0.5-0.1,0.7c-0.1,1-0.2,2-0.3,3c0,0.2,0,0.5,0,0.7C0,47.3,0,48.3,0,49.4c0,0,0,0.2,0,0.2v0c0.1,22.6,15,41.7,35.3,48
	c0,0,0,0,0,0c0.1,0,0.3,0.1,0.4,0.1c0.9,0.3,1.8,0.5,2.7,0.7c0.3,0.1,0.6,0.1,0.9,0.2c1.1,0.2,2.1,0.4,3.2,0.6c0.1,0,0.2,0,0.3,0
	c1,0.1,2,0.3,3,0.3c0.3,0,0.6,0,0.8,0.1c1.1,0.1,2.2,0.1,3.3,0.1c0.7,0,1.4,0,2.2-0.1c0.5,0,1.1-0.1,1.6-0.1c0.2,0,0.3,0,0.5,0
	c0,0,0,0,0,0c24-2.1,43.7-21.7,45.6-46.2C100.1,52.6,99.7,51.8,99.2,51.3z M7.2,53.8c-0.7,0-1.4-0.1-2-0.2C5.1,52.1,5,50.6,5,49.1
	c0-5.6,1-11,2.9-16c5.3,0.4,9.6,4.8,9.6,10.3C17.5,49.1,12.9,53.8,7.2,53.8z M35.9,15.2c4.7,0,8.5,3.8,8.5,8.6s-3.8,8.6-8.5,8.6
	c-4.7,0-8.5-3.8-8.5-8.6S31.2,15.2,35.9,15.2z M27.7,59c0-7.5,6.1-13.7,13.6-13.7c7.5,0,13.6,6.1,13.6,13.7
	c0,7.5-6.1,13.7-13.6,13.7C33.8,72.7,27.7,66.5,27.7,59z M50.2,94.6c-5.6,0-10.9-1-15.9-2.9c1.6-4.5,5.8-7.6,10.8-7.6
	c5.8,0,10.7,4.4,11.4,10.1C54.5,94.5,52.3,94.6,50.2,94.6z M74.5,74.2c-4.7,0-8.5-3.8-8.5-8.6s3.8-8.6,8.5-8.6
	c4.7,0,8.5,3.8,8.5,8.6S79.2,74.2,74.5,74.2z"/>
</svg>
