<?xml version="1.0" encoding="utf-8"?>
<!-- Generator: Adobe Illustrator 22.1.0, SVG Export Plug-In . SVG Version: 6.00 Build 0)  -->
<svg version="1.1" id="Layer_1" xmlns="http://www.w3.org/2000/svg" xmlns:xlink="http://www.w3.org/1999/xlink" x="0px" y="0px"
	 viewBox="0 0 100 100" style="enable-background:new 0 0 100 100;" xml:space="preserve">
<style type="text/css">
	.cookie-consent-st0{fill:#B4814A;}
	.cookie-consent-st1{fill:#513A2B;}
	.cookie-consent-st2{fill:#2E2E30;}
	.cookie-consent-st3{opacity:0.2;fill:#010202;enable-background:new    ;}
</style>
<title>icon</title>
<path id="Fill-1_2_" class="cookie-consent-st0" d="M95.1,53.5c-5.8,0-10.4-4.7-10.4-10.5c0-1.8,0.5-3.5,1.3-5c-1.2,0.4-2.5,0.6-3.9,0.6
	c-7.2,0-13-5.9-13-13.1c0-0.3,0-0.5,0-0.8c-1.4,0.5-2.9,0.8-4.4,0.8c-7.2,0-13-5.9-13-13.1c0-1.5,0.3-2.9,0.7-4.2
	c-0.8,0.2-1.6,0.3-2.4,0.3c-4.3,0-8-2.4-9.9-5.9C18.6,7,2.4,26.3,2.4,49.4c0,26.5,21.3,48,47.7,48c25.1,0,45.6-19.5,47.5-44.2
	C96.8,53.4,96,53.5,95.1,53.5"/>
<path id="Fill-5_5_" class="cookie-consent-st1" d="M52.4,59c0,6.2-5,11.2-11.2,11.2s-11.2-5-11.2-11.2s5-11.2,11.2-11.2S52.4,52.8,52.4,59"/>
<path id="Fill-7_5_" class="cookie-consent-st2" d="M41.2,50.2c-4.8,0-8.7,4-8.7,8.8s3.9,8.8,8.7,8.8s8.7-4,8.7-8.8S46.1,50.2,41.2,50.2 M41.2,72.7
	c-7.5,0-13.6-6.1-13.6-13.7s6.1-13.7,13.6-13.7S54.8,51.5,54.8,59S48.7,72.7,41.2,72.7"/>
<path id="Fill-9_2_" class="cookie-consent-st1" d="M2.4,49.6c1.3,1.1,3,1.8,4.9,1.8c4.3,0,7.9-3.5,7.9-7.9s-3.5-7.9-7.9-7.9c-1.1,0-2.1,0.2-3,0.6
	c-1.2,4.2-1.9,8.7-1.9,13.3C2.4,49.4,2.4,49.5,2.4,49.6"/>
<path id="Fill-11_5_" class="cookie-consent-st1" d="M42,23.8c0,3.4-2.7,6.2-6.1,6.2s-6.1-2.8-6.1-6.2s2.7-6.2,6.1-6.2S42,20.4,42,23.8"/>
<path id="Fill-13_5_" class="cookie-consent-st2" d="M35.9,20.1c-2,0-3.7,1.7-3.7,3.7s1.7,3.7,3.7,3.7c2,0,3.7-1.7,3.7-3.7S37.9,20.1,35.9,20.1
	 M35.9,32.4c-4.7,0-8.5-3.8-8.5-8.6s3.8-8.6,8.5-8.6s8.5,3.8,8.5,8.6S40.6,32.4,35.9,32.4"/>
<path id="Fill-15_5_" class="cookie-consent-st1" d="M80.6,65.6c0,3.4-2.7,6.2-6.1,6.2c-3.4,0-6.1-2.8-6.1-6.2s2.7-6.2,6.1-6.2
	C77.9,59.5,80.6,62.2,80.6,65.6"/>
<path id="Fill-17_5_" class="cookie-consent-st2" d="M74.5,61.9c-2,0-3.7,1.7-3.7,3.7c0,2.1,1.7,3.7,3.7,3.7c2,0,3.7-1.7,3.7-3.7
	C78.2,63.6,76.5,61.9,74.5,61.9 M74.5,74.2c-4.7,0-8.5-3.8-8.5-8.6c0-4.7,3.8-8.6,8.5-8.6c4.7,0,8.5,3.8,8.5,8.6
	C83,70.4,79.2,74.2,74.5,74.2"/>
<path id="Fill-19_2_" class="cookie-consent-st1" d="M50.1,97.4c1.4,0,2.8-0.1,4.1-0.2c0.1-0.5,0.1-1,0.1-1.5c0-5.1-4.1-9.2-9.1-9.2
	c-4.9,0-8.9,3.9-9.1,8.8C40.5,96.7,45.2,97.4,50.1,97.4"/>
<path id="Fill-3_2_" class="cookie-consent-st3" d="M95.1,53.5c-0.6,0-1.2-0.1-1.7-0.2C85.6,72.5,66.9,86.1,45,86.1c-15.2,0-28.9-6.5-38.4-17
	c7.5,16.7,24.1,28.3,43.5,28.3c25.1,0,45.6-19.5,47.5-44.2C96.8,53.4,96,53.5,95.1,53.5"/>
<path id="Fill-21_2_" class="cookie-consent-st2" d="M56.7,94.5c-0.6-5.8-5.5-10.4-11.5-10.4c-5.1,0-9.4,3.3-10.9,8c-16-6-27.7-20.9-29.2-38.6
	c0.7,0.2,1.5,0.3,2.3,0.3c5.7,0,10.3-4.6,10.3-10.3c0-5.5-4.3-10-9.7-10.3C13.1,19.5,24.5,8.8,39,5.2c2.4,3.3,6.2,5.4,10.3,5.6
	c-0.1,0.5-0.1,1.1-0.1,1.6c0,8.6,6.9,15.5,15.4,15.5c0.7,0,1.4-0.1,2.1-0.2C68,35.3,74.6,41.1,82.5,41c-0.1,0.7-0.2,1.3-0.2,2
	c0,7,5.6,12.8,12.6,12.9C92,75.9,76.2,91.6,56.7,94.5 M50.1,95c-0.9,0-1.8,0-2.6-0.1c-0.3,0-0.5,0-0.8-0.1c-0.6,0-1.2-0.1-1.8-0.2
	c-0.3,0-0.6-0.1-0.9-0.1c-0.6-0.1-1.2-0.2-1.8-0.3c-0.3-0.1-0.6-0.1-0.9-0.2c-0.7-0.1-1.4-0.3-2.1-0.5c-0.1,0-0.2-0.1-0.4-0.1
	c0.9-2.7,3.4-4.6,6.4-4.6c3.4,0,6.3,2.6,6.7,6C51.3,95,50.7,95,50.1,95 M7.3,37.9c3,0,5.5,2.5,5.5,5.5c0,3-2.4,5.5-5.5,5.5
	c-1,0-1.8-0.3-2.4-0.6c0-0.9,0-1.8,0.1-2.7c0-0.1,0-0.2,0-0.3c0.1-1.1,0.2-2.2,0.4-3.2c0-0.2,0.1-0.4,0.1-0.6
	C5.7,40.3,6,39.1,6.3,38C6.6,38,6.9,37.9,7.3,37.9 M100,53.4c0.1-0.8-0.3-1.5-0.8-2c-0.6-0.5-1.4-0.7-2.1-0.5
	c-0.6,0.2-1.3,0.2-1.9,0.2c-4.4,0-8-3.6-8-8.1c0-1.4,0.3-2.7,1-3.9c0.5-0.9,0.4-1.9-0.2-2.7c-0.6-0.8-1.6-1.1-2.6-0.8
	c-1,0.3-2.1,0.5-3.2,0.5c-5.9,0-10.6-4.8-10.6-10.7c0-0.1,0-0.3,0-0.4l0-0.2c0-0.8-0.3-1.6-1-2.1c-0.6-0.5-1.5-0.6-2.3-0.3
	c-1.2,0.4-2.4,0.6-3.6,0.6c-5.9,0-10.6-4.8-10.6-10.7c0-1.2,0.2-2.3,0.6-3.5C55,8,54.8,7.1,54.2,6.5c-0.6-0.7-1.5-0.9-2.3-0.8
	c-3.9,0.9-7.8-1-9.6-4.4c-0.5-0.9-1.6-1.4-2.6-1.2C21.4,4,7.2,17.8,2.1,35.2C2,35.3,2,35.4,2,35.4c-0.1,0.2-0.1,0.5-0.2,0.7
	c-0.2,0.8-0.4,1.6-0.6,2.4c-0.1,0.3-0.1,0.6-0.2,1c-0.2,0.8-0.3,1.5-0.4,2.3c0,0.2-0.1,0.5-0.1,0.7c-0.1,1-0.2,2-0.3,3
	c0,0.2,0,0.5,0,0.7C0,47.3,0,48.3,0,49.4c0,0,0,0.2,0,0.2v0c0.1,22.6,15,41.7,35.3,48c0,0,0,0,0,0c0.1,0,0.3,0.1,0.4,0.1
	c0.9,0.3,1.8,0.5,2.7,0.7c0.3,0.1,0.6,0.1,0.9,0.2c1.1,0.2,2.1,0.4,3.2,0.6c0.1,0,0.2,0,0.3,0c1,0.1,2,0.3,3,0.3
	c0.3,0,0.6,0,0.8,0.1c1.1,0.1,2.2,0.1,3.3,0.1c0.7,0,1.4,0,2.2-0.1c0.5,0,1.1-0.1,1.6-0.1c0.2,0,0.3,0,0.5,0c0,0,0,0,0,0
	C78.4,97.5,98.1,78,100,53.4"/>
<path id="Fill-11_1_" class="cookie-consent-st0" d="M70.5,9.9c0,2.5-2,4.5-4.5,4.5c-2.5,0-4.5-2-4.5-4.5s2-4.5,4.5-4.5C68.5,5.3,70.5,7.4,70.5,9.9
	"/>
<path id="Fill-13_1_" class="cookie-consent-st2" d="M66,7.1c-1.5,0-2.7,1.2-2.7,2.7s1.2,2.7,2.7,2.7s2.7-1.2,2.7-2.7S67.5,7.1,66,7.1 M66,16.2
	c-3.5,0-6.3-2.8-6.3-6.3s2.8-6.3,6.3-6.3s6.3,2.8,6.3,6.3S69.4,16.2,66,16.2"/>
<path id="Fill-15_2_" class="cookie-consent-st0" d="M98.2,6.3c0,2.5-2,4.5-4.5,4.5c-2.5,0-4.5-2-4.5-4.5s2-4.5,4.5-4.5C96.2,1.8,98.2,3.8,98.2,6.3
	"/>
<path id="Fill-17_2_" class="cookie-consent-st2" d="M93.7,3.6c-1.5,0-2.7,1.2-2.7,2.7c0,1.5,1.2,2.7,2.7,2.7c1.5,0,2.7-1.2,2.7-2.7
	C96.5,4.8,95.2,3.6,93.7,3.6 M93.7,12.6c-3.5,0-6.3-2.8-6.3-6.3c0-3.5,2.8-6.3,6.3-6.3c3.5,0,6.3,2.8,6.3,6.3
	C100,9.8,97.2,12.6,93.7,12.6"/>
<path id="Fill-15_3_" class="cookie-consent-st0" d="M96.8,25.1c0,3.2-2.6,5.8-5.7,5.8s-5.7-2.6-5.7-5.8s2.6-5.8,5.7-5.8S96.8,21.9,96.8,25.1"/>
<path class="cookie-consent-st2" d="M91,18.1c-3.9,0-7,3.2-7,7.1c0,3.9,3.1,7.1,7,7.1s7-3.2,7-7.1C98,21.2,94.9,18.1,91,18.1z M91,28.6
	c-1.9,0-3.5-1.6-3.5-3.5s1.6-3.5,3.5-3.5s3.5,1.6,3.5,3.5S92.9,28.6,91,28.6z"/>
</svg>
